<svg xmlns="http://www.w3.org/2000/svg" width="520" height="246" viewBox="0 0 520 246" role="img">
<style>
  text { font-family: -apple-system,BlinkMacSystemFont,"Segoe UI",Helvetica,Arial,sans-serif; }
</style>
<rect x="0.5" y="0.5" width="519" height="245" rx="10" fill="#0d1117" stroke="#30363d"/>

<text x="24" y="36" font-size="20" font-weight="700" fill="#58a6ff">Most Used Languages</text>
<rect x="24.0" y="58" width="472.0" height="12" rx="6" fill="#21262d"/>
<rect x="24.00" y="58" width="445.82" height="12" fill="#555555"/>
<rect x="469.82" y="58" width="6.81" height="12" fill="#2d1979"/>
<rect x="476.63" y="58" width="6.13" height="12" fill="#427819"/>
<rect x="482.75" y="58" width="3.30" height="12" fill="#DA5B0B"/>
<rect x="486.06" y="58" width="3.18" height="12" fill="#f34b7d"/>
<rect x="489.24" y="58" width="2.08" height="12" fill="#DA3434"/>
<circle cx="30" cy="103" r="6" fill="#555555"/>
<text x="44" y="108" font-size="14" fill="#c9d1d9">C 94.5%</text>
<circle cx="288" cy="103" r="6" fill="#2d1979"/>
<text x="302" y="108" font-size="14" fill="#c9d1d9">Assembly 1.4%</text>
<circle cx="30" cy="145" r="6" fill="#427819"/>
<text x="44" y="150" font-size="14" fill="#c9d1d9">Makefile 1.3%</text>
<circle cx="288" cy="145" r="6" fill="#DA5B0B"/>
<text x="302" y="150" font-size="14" fill="#c9d1d9">Jupyter Notebook 0.7%</text>
<circle cx="30" cy="187" r="6" fill="#f34b7d"/>
<text x="44" y="192" font-size="14" fill="#c9d1d9">C++ 0.7%</text>
<circle cx="288" cy="187" r="6" fill="#DA3434"/>
<text x="302" y="192" font-size="14" fill="#c9d1d9">CMake 0.4%</text>
<text x="24" y="228" font-size="11" fill="#8b949e">Calculated from public, non-fork repositories using GitHub Linguist data.</text>
</svg>